<svg width="83" height="101" viewBox="0 0 83 101" fill="none" xmlns="http://www.w3.org/2000/svg">
<path d="M42.7872 71.4648C43.5367 51.1967 35.3764 44.362 28.9346 40.1199C30.5058 32.4211 36.1459 28.261 36.1459 28.261" stroke="white" stroke-width="1.3287" stroke-linecap="round" stroke-linejoin="round"/>
<path d="M41.4254 27.3934C41.4254 27.3934 38.8034 31.6356 36.4467 31.7239C36.4467 31.7239 35.6807 23.976 35.9754 22.4146C37.8904 20.1758 42.0146 19.6455 44.3714 19.6455C46.7281 19.6455 48.6135 21.2364 48.9376 24.7125C51.1764 24.742 53.2976 25.7731 53.7395 26.7451C53.5921 29.2197 51.589 30.4865 49.6446 31.223C47.7001 31.9595 46.1094 33.1673 46.1094 34.3457C46.1094 35.5241 46.6397 39.9725 49.9391 40.5911C53.2386 41.2098 58.4529 42.83 58.4529 48.1622C58.4529 53.4944 56.6558 52.6105 56.6558 57.8347C56.6558 63.0589 57.2058 61.8805 57.2058 64.5514C57.2058 67.2224 56.3416 69.5792 55.4775 71.1504" stroke="white" stroke-width="1.3287" stroke-linecap="round" stroke-linejoin="round"/>
<path d="M51.039 70.6793C51.039 70.6793 52.0211 66.1229 52.0211 63.9626C52.0211 61.8023 50.1854 58.9943 48.2502 56.5584C46.5809 54.457 42.2263 56.2878 42.3848 61.745" stroke="white" stroke-width="1.3287" stroke-linecap="round" stroke-linejoin="round"/>
<path d="M56.0752 43.0859C60.466 43.537 63.5299 39.6876 60.9373 35.0527" stroke="white" stroke-width="1.3287" stroke-linecap="round" stroke-linejoin="round"/>
<path d="M28.9345 40.1198C29.2094 41.3374 29.4353 43.7727 29.4353 43.7727C27.932 43.7727 26.5671 45.0454 25.7127 45.6052C23.9694 46.7473 22.1441 47.1312 22.2079 49.1933C22.8363 50.843 25.6546 51.0296 27.6971 50.9904L27.6529 52.1393C25.6181 54.0841 21.7756 58.4446 21.7756 63.8053C21.7756 70.0507 26.3418 71.1504 28.9343 71.1504C31.5267 71.1504 44.454 64.6154 40.2133 53.1999" stroke="white" stroke-width="1.3287" stroke-linecap="round" stroke-linejoin="round"/>
<path d="M18.3192 53.7107C19.5368 53.8285 20.8723 54.0249 20.8723 55.9496C20.8723 57.8742 18.0442 59.6811 18.0442 64.1982C18.0442 68.7154 21.0785 71.1507 28.9343 71.1507" stroke="white" stroke-width="1.3287" stroke-linecap="round" stroke-linejoin="round"/>
<path d="M57.0839 62.8956C56.3417 59.9953 52.9636 56.8136 52.0209 56.3423C51.0782 55.871 51.0236 60.6419 51.7088 62.2531" stroke="white" stroke-width="1.3287" stroke-linecap="round" stroke-linejoin="round"/>
<path d="M75.825 64.4214V37.2206C75.825 33.3972 74.2503 29.7424 71.4713 27.1165L45.8445 2.89891C43.1652 0.367029 38.9752 0.367029 36.296 2.89891L10.669 27.1165C7.8901 29.7424 6.31543 33.3972 6.31543 37.2206V64.4214C6.31543 68.2604 9.42748 71.3724 13.2664 71.3724H68.8741C72.7131 71.3724 75.825 68.2604 75.825 64.4214Z" stroke="#309C9D" stroke-width="1.50368" stroke-linecap="round" stroke-linejoin="round"/>
<path d="M5.11854 81.3012C5.08145 81.3642 5.0425 81.4106 5.0017 81.4403C4.9609 81.4699 4.90898 81.4848 4.84592 81.4848C4.77916 81.4848 4.70312 81.4551 4.61781 81.3957C4.5325 81.3327 4.42494 81.2641 4.29512 81.1899C4.16901 81.112 4.01694 81.0434 3.8389 80.984C3.66087 80.921 3.4476 80.8895 3.19909 80.8895C2.96541 80.8895 2.75956 80.921 2.58152 80.984C2.4072 81.0434 2.26069 81.1268 2.142 81.2344C2.02331 81.3383 1.93243 81.4625 1.86938 81.6072C1.81003 81.7481 1.78036 81.902 1.78036 82.0689C1.78036 82.2841 1.83414 82.4621 1.94171 82.6031C2.05298 82.744 2.19763 82.8645 2.37567 82.9647C2.55371 83.0648 2.75585 83.152 2.98211 83.2262C3.20836 83.3004 3.44018 83.3783 3.67756 83.4599C3.91494 83.5377 4.14676 83.6286 4.37301 83.7325C4.59927 83.8363 4.80141 83.968 4.97945 84.1275C5.15748 84.2833 5.30028 84.4761 5.40785 84.7061C5.51912 84.9324 5.57476 85.2105 5.57476 85.5407C5.57476 85.893 5.51356 86.2231 5.39116 86.531C5.27247 86.8388 5.09814 87.1077 4.86818 87.3377C4.63821 87.5677 4.35447 87.7494 4.01694 87.8829C3.68312 88.0128 3.30294 88.0777 2.8764 88.0777C2.62047 88.0777 2.37196 88.0517 2.13087 87.9998C1.88978 87.9516 1.66167 87.8829 1.44654 87.7939C1.23142 87.7012 1.02927 87.5918 0.840108 87.4657C0.654654 87.3358 0.487745 87.1912 0.339381 87.0317L0.678763 86.4642C0.712145 86.4197 0.75109 86.3826 0.795599 86.3529C0.843817 86.3233 0.897599 86.3084 0.956944 86.3084C1.03483 86.3084 1.12385 86.3492 1.224 86.4308C1.32785 86.5124 1.45396 86.6033 1.60233 86.7034C1.7544 86.7999 1.93429 86.8889 2.142 86.9705C2.35342 87.0521 2.60934 87.0929 2.90978 87.0929C3.15458 87.0929 3.37341 87.0614 3.56629 86.9983C3.75916 86.9316 3.9205 86.8388 4.05032 86.7201C4.18385 86.5977 4.28585 86.4512 4.35632 86.2806C4.42679 86.11 4.46203 85.9208 4.46203 85.7131C4.46203 85.4795 4.40825 85.2884 4.30069 85.1401C4.19312 84.9917 4.05032 84.8675 3.87229 84.7673C3.69425 84.6672 3.4921 84.5819 3.26585 84.5114C3.0396 84.4409 2.80778 84.3686 2.5704 84.2944C2.33302 84.2165 2.1012 84.1275 1.87494 84.0273C1.64869 83.9272 1.44654 83.7974 1.26851 83.6379C1.09047 83.4747 0.947671 83.2725 0.840108 83.0315C0.732544 82.7867 0.678763 82.4862 0.678763 82.1301C0.678763 81.8445 0.734399 81.5682 0.845672 81.3012C0.956944 81.0341 1.11829 80.7986 1.32971 80.5946C1.54483 80.3869 1.80818 80.2218 2.11974 80.0994C2.43131 79.9733 2.78738 79.9103 3.18796 79.9103C3.63676 79.9103 4.04847 79.9826 4.42308 80.1272C4.80141 80.2682 5.12967 80.4722 5.40785 80.7392L5.11854 81.3012ZM10.5266 84.5336C10.5266 84.3185 10.495 84.1201 10.432 83.9383C10.3726 83.7566 10.2836 83.5989 10.1649 83.4654C10.0462 83.3319 9.90158 83.228 9.73096 83.1539C9.56034 83.0797 9.36376 83.0426 9.14122 83.0426C8.685 83.0426 8.32522 83.1743 8.06187 83.4376C7.80224 83.7009 7.63718 84.0663 7.56671 84.5336H10.5266ZM11.4223 87.1819C11.2888 87.3377 11.1348 87.4731 10.9605 87.5881C10.7862 87.6993 10.6007 87.7902 10.4042 87.8607C10.2076 87.9312 10.0036 87.9831 9.79216 88.0165C9.58445 88.0498 9.3786 88.0665 9.1746 88.0665C8.78514 88.0665 8.42351 88.0016 8.08969 87.8718C7.75958 87.7383 7.47213 87.5454 7.22733 87.2932C6.98624 87.0373 6.79707 86.722 6.65984 86.3474C6.52631 85.9691 6.45955 85.5351 6.45955 85.0455C6.45955 84.6523 6.52075 84.287 6.64315 83.9495C6.76555 83.6082 6.93987 83.3115 7.16613 83.0593C7.39609 82.8071 7.67613 82.6086 8.00624 82.464C8.33634 82.3193 8.70725 82.247 9.11896 82.247C9.46391 82.247 9.78103 82.3045 10.0703 82.4195C10.3634 82.5307 10.6156 82.6939 10.827 82.9091C11.0384 83.1242 11.2035 83.3894 11.3222 83.7047C11.4446 84.0199 11.5058 84.3797 11.5058 84.784C11.5058 84.9509 11.4872 85.064 11.4501 85.1234C11.413 85.179 11.3444 85.2068 11.2443 85.2068H7.53889C7.55002 85.5444 7.59824 85.8392 7.68355 86.0914C7.76885 86.34 7.88569 86.5477 8.03405 86.7146C8.18613 86.8815 8.36602 87.0057 8.57373 87.0873C8.78143 87.1689 9.01325 87.2097 9.26918 87.2097C9.51027 87.2097 9.71798 87.1819 9.89231 87.1263C10.0703 87.0706 10.2224 87.0113 10.3485 86.9482C10.4783 86.8815 10.5859 86.8203 10.6712 86.7646C10.7602 86.709 10.8381 86.6812 10.9049 86.6812C10.9939 86.6812 11.0625 86.7146 11.1107 86.7813L11.4223 87.1819ZM13.8068 82.336V88.3447C13.8068 88.5784 13.7753 88.7954 13.7123 88.9957C13.6529 89.1997 13.5565 89.3758 13.423 89.5242C13.2931 89.6763 13.1225 89.795 12.9111 89.8803C12.7034 89.9656 12.4512 90.0082 12.1544 90.0082C12.032 90.0082 11.9208 89.999 11.8206 89.9804C11.7168 89.9619 11.6129 89.9359 11.5091 89.9025L11.5536 89.3128C11.5684 89.2423 11.6018 89.2034 11.6537 89.196C11.7019 89.1885 11.7965 89.1848 11.9375 89.1848C12.2231 89.1848 12.4252 89.1199 12.5439 88.9901C12.6626 88.8603 12.7219 88.6452 12.7219 88.3447V82.336H13.8068ZM14.0127 80.589C14.0127 80.6892 13.9923 80.7856 13.9515 80.8783C13.9107 80.9673 13.8551 81.0471 13.7846 81.1176C13.7141 81.1843 13.6325 81.2381 13.5398 81.2789C13.4508 81.316 13.3543 81.3345 13.2505 81.3345C13.1503 81.3345 13.0558 81.316 12.9667 81.2789C12.8777 81.2381 12.798 81.1843 12.7275 81.1176C12.6607 81.0471 12.607 80.9673 12.5662 80.8783C12.5291 80.7856 12.5105 80.6892 12.5105 80.589C12.5105 80.4852 12.5291 80.3887 12.5662 80.2997C12.607 80.207 12.6607 80.1272 12.7275 80.0605C12.798 79.99 12.8777 79.9362 12.9667 79.8991C13.0558 79.8583 13.1503 79.8379 13.2505 79.8379C13.3543 79.8379 13.4508 79.8583 13.5398 79.8991C13.6325 79.9362 13.7141 79.99 13.7846 80.0605C13.8551 80.1272 13.9107 80.207 13.9515 80.2997C13.9923 80.3887 14.0127 80.4852 14.0127 80.589ZM16.4013 83.4209C16.5831 83.05 16.8019 82.7588 17.0578 82.5474C17.3138 82.336 17.6216 82.2303 17.9814 82.2303C18.1038 82.2303 18.2188 82.2451 18.3263 82.2748C18.4376 82.3008 18.534 82.3416 18.6156 82.3972L18.5433 83.2151C18.5174 83.3152 18.4562 83.3653 18.3597 83.3653C18.3078 83.3653 18.2299 83.356 18.126 83.3375C18.0222 83.3152 17.9109 83.3041 17.7922 83.3041C17.6179 83.3041 17.464 83.33 17.3304 83.382C17.1969 83.4302 17.0764 83.5044 16.9688 83.6045C16.865 83.7009 16.7722 83.8215 16.6906 83.9661C16.609 84.1071 16.533 84.2684 16.4625 84.4502V87.9886H15.3776V82.336H16.0007C16.1194 82.336 16.1992 82.3583 16.24 82.4028C16.2845 82.4436 16.316 82.5177 16.3346 82.6253L16.4013 83.4209ZM23.9362 84.1052C23.569 84.3092 23.2945 84.554 23.1128 84.8396C22.9348 85.1215 22.8457 85.4257 22.8457 85.7521C22.8457 85.982 22.8865 86.1879 22.9681 86.3696C23.0534 86.5477 23.1647 86.6979 23.302 86.8203C23.4429 86.9427 23.6024 87.0354 23.7804 87.0985C23.9622 87.1615 24.1476 87.193 24.3368 87.193C24.73 87.193 25.0842 87.1244 25.3994 86.9872C25.7147 86.8462 25.9948 86.6589 26.2396 86.4253L23.9362 84.1052ZM29.1382 87.9886H28.0811C27.9624 87.9886 27.8678 87.9757 27.7974 87.9497C27.7306 87.92 27.6546 87.8607 27.5693 87.7717L26.8293 87.0261C26.4806 87.3525 26.0801 87.6103 25.6276 87.7995C25.1788 87.9849 24.6854 88.0777 24.1476 88.0777C23.8472 88.0777 23.5523 88.0276 23.263 87.9274C22.9774 87.8236 22.7215 87.6752 22.4952 87.4824C22.269 87.2895 22.0854 87.0558 21.9444 86.7813C21.8072 86.5032 21.7386 86.1897 21.7386 85.8411C21.7386 85.5852 21.7812 85.3422 21.8665 85.1123C21.9518 84.8786 22.0705 84.6653 22.2226 84.4724C22.3747 84.2759 22.5546 84.0997 22.7623 83.9439C22.9737 83.7881 23.2018 83.6546 23.4466 83.5433C23.2278 83.2577 23.0664 82.9814 22.9626 82.7143C22.8624 82.4436 22.8124 82.1672 22.8124 81.8853C22.8124 81.6146 22.8624 81.3587 22.9626 81.1176C23.0627 80.8765 23.2055 80.6669 23.391 80.4889C23.5764 80.3108 23.8027 80.1699 24.0697 80.066C24.3405 79.9622 24.6446 79.9103 24.9822 79.9103C25.2826 79.9103 25.5552 79.9585 25.8 80.0549C26.0485 80.1476 26.2618 80.2737 26.4398 80.4332C26.6179 80.5927 26.757 80.7763 26.8571 80.984C26.961 81.1917 27.0203 81.4087 27.0352 81.635L26.3564 81.7741C26.2192 81.8037 26.119 81.7425 26.056 81.5905C26.0263 81.494 25.9836 81.3957 25.928 81.2956C25.8761 81.1955 25.8056 81.1064 25.7166 81.0285C25.6313 80.9469 25.5274 80.8802 25.405 80.8283C25.2826 80.7763 25.1417 80.7504 24.9822 80.7504C24.8041 80.7504 24.6428 80.78 24.4981 80.8394C24.3572 80.8987 24.2366 80.9803 24.1365 81.0842C24.0364 81.1843 23.9585 81.303 23.9028 81.4403C23.8509 81.5775 23.8249 81.724 23.8249 81.8798C23.8249 82.0022 23.8398 82.1227 23.8694 82.2414C23.8991 82.3564 23.9436 82.4732 24.003 82.5919C24.066 82.7069 24.1458 82.8256 24.2422 82.948C24.3386 83.0667 24.4536 83.1947 24.5872 83.3319L26.8404 85.6408C26.9777 85.396 27.0871 85.1382 27.1687 84.8675C27.2503 84.5967 27.3041 84.3259 27.33 84.0552C27.3374 83.981 27.3597 83.9216 27.3968 83.8771C27.4376 83.8326 27.4951 83.8104 27.5693 83.8104H28.2425C28.2387 84.2555 28.1701 84.6894 28.0366 85.1123C27.9031 85.5314 27.7139 85.9208 27.4691 86.2806L29.1382 87.9886ZM39.9903 83.994C39.9903 84.5911 39.8939 85.1345 39.701 85.6241C39.5118 86.1137 39.2429 86.5347 38.8943 86.887C38.5456 87.2357 38.1284 87.5065 37.6425 87.6993C37.1566 87.8922 36.6169 87.9886 36.0235 87.9886H33.0191V79.9993H36.0235C36.6169 79.9993 37.1566 80.0957 37.6425 80.2886C38.1284 80.4815 38.5456 80.7541 38.8943 81.1064C39.2429 81.4551 39.5118 81.8761 39.701 82.3694C39.8939 82.859 39.9903 83.4005 39.9903 83.994ZM38.7775 83.994C38.7775 83.5192 38.7125 83.0945 38.5827 82.7199C38.4529 82.3416 38.2675 82.0226 38.0264 81.7629C37.789 81.4996 37.4997 81.2993 37.1584 81.1621C36.8209 81.0248 36.4426 80.9562 36.0235 80.9562H34.2097V87.0317H36.0235C36.4426 87.0317 36.8209 86.9631 37.1584 86.8258C37.4997 86.6886 37.789 86.4902 38.0264 86.2305C38.2675 85.9672 38.4529 85.6482 38.5827 85.2736C38.7125 84.899 38.7775 84.4724 38.7775 83.994ZM44.158 85.4795C43.7166 85.4943 43.342 85.5295 43.0341 85.5852C42.7263 85.6371 42.4759 85.7076 42.2831 85.7966C42.0902 85.8856 41.9511 85.9913 41.8658 86.1137C41.7805 86.2324 41.7378 86.3659 41.7378 86.5143C41.7378 86.6552 41.7601 86.7776 41.8046 86.8815C41.8528 86.9816 41.9159 87.0651 41.9937 87.1318C42.0753 87.1949 42.1699 87.2413 42.2775 87.2709C42.3851 87.3006 42.5019 87.3154 42.628 87.3154C42.7949 87.3154 42.947 87.2988 43.0842 87.2654C43.2252 87.232 43.3568 87.1856 43.4792 87.1263C43.6016 87.0632 43.7185 86.9872 43.8297 86.8982C43.941 86.8092 44.0504 86.7072 44.158 86.5922V85.4795ZM40.9756 83.126C41.2909 82.8256 41.6321 82.6012 41.9993 82.4528C42.3702 82.3045 42.7764 82.2303 43.2177 82.2303C43.5404 82.2303 43.826 82.2841 44.0745 82.3916C44.3231 82.4955 44.5326 82.642 44.7032 82.8312C44.8739 83.0203 45.0018 83.2466 45.0871 83.5099C45.1761 83.7733 45.2207 84.0644 45.2207 84.3834V87.9886H44.7366C44.6291 87.9886 44.5475 87.972 44.4918 87.9386C44.4362 87.9015 44.3917 87.8347 44.3583 87.7383L44.2415 87.2431C44.0968 87.3766 43.954 87.4953 43.8131 87.5992C43.6721 87.6993 43.5237 87.7865 43.368 87.8607C43.2159 87.9312 43.0527 87.9849 42.8784 88.022C42.704 88.0591 42.5112 88.0777 42.2997 88.0777C42.0772 88.0777 41.8676 88.048 41.6711 87.9886C41.4782 87.9256 41.3094 87.831 41.1648 87.7049C41.0201 87.5788 40.9051 87.4212 40.8198 87.232C40.7382 87.0428 40.6974 86.8221 40.6974 86.5699C40.6974 86.3474 40.7568 86.1341 40.8755 85.9301C40.9979 85.7224 41.1944 85.5369 41.4652 85.3737C41.7397 85.2105 42.0957 85.077 42.5334 84.9732C42.9748 84.8693 43.5163 84.81 44.158 84.7951V84.3834C44.158 83.9569 44.0671 83.6379 43.8854 83.4265C43.7036 83.2151 43.4366 83.1093 43.0842 83.1093C42.8468 83.1093 42.6465 83.139 42.4833 83.1984C42.3239 83.2577 42.1848 83.3245 42.0661 83.3987C41.9511 83.4691 41.8491 83.534 41.7601 83.5934C41.6748 83.6527 41.5857 83.6824 41.493 83.6824C41.4188 83.6824 41.3539 83.662 41.2983 83.6212C41.2464 83.5804 41.2037 83.5322 41.1703 83.4765L40.9756 83.126ZM51.4606 82.336L49.1684 87.9886H48.1892L45.897 82.336H46.7927C46.878 82.336 46.9485 82.3564 47.0041 82.3972C47.0598 82.438 47.0969 82.4899 47.1154 82.553L48.4674 86.0247C48.5156 86.1693 48.5564 86.314 48.5898 86.4586C48.6269 86.5996 48.6602 86.7405 48.6899 86.8815C48.7196 86.7405 48.753 86.5996 48.7901 86.4586C48.8272 86.3177 48.8717 86.173 48.9236 86.0247L50.2922 82.553C50.3145 82.4899 50.3534 82.438 50.4091 82.3972C50.4647 82.3564 50.5315 82.336 50.6094 82.336H51.4606ZM53.4586 82.336V87.9886H52.3737V82.336H53.4586ZM53.6644 80.589C53.6644 80.6892 53.644 80.7856 53.6032 80.8783C53.5624 80.9673 53.5068 81.0471 53.4363 81.1176C53.3695 81.1843 53.2898 81.2381 53.1971 81.2789C53.1043 81.316 53.0079 81.3345 52.9078 81.3345C52.8076 81.3345 52.713 81.316 52.624 81.2789C52.535 81.2381 52.4553 81.1843 52.3848 81.1176C52.318 81.0471 52.2642 80.9673 52.2234 80.8783C52.1863 80.7856 52.1678 80.6892 52.1678 80.589C52.1678 80.4852 52.1863 80.3887 52.2234 80.2997C52.2642 80.207 52.318 80.1272 52.3848 80.0605C52.4553 79.99 52.535 79.9362 52.624 79.8991C52.713 79.8583 52.8076 79.8379 52.9078 79.8379C53.0079 79.8379 53.1043 79.8583 53.1971 79.8991C53.2898 79.9362 53.3695 79.99 53.4363 80.0605C53.5068 80.1272 53.5624 80.207 53.6032 80.2997C53.644 80.3887 53.6644 80.4852 53.6644 80.589ZM58.6735 83.7047C58.4955 83.471 58.3026 83.3078 58.0949 83.2151C57.8909 83.1223 57.6609 83.076 57.405 83.076C56.908 83.076 56.5222 83.2559 56.2478 83.6156C55.977 83.9717 55.8416 84.4928 55.8416 85.179C55.8416 85.5388 55.8713 85.8467 55.9306 86.1026C55.9937 86.3548 56.0827 86.5625 56.1977 86.7257C56.3164 86.8852 56.461 87.0039 56.6317 87.0818C56.8023 87.156 56.9951 87.193 57.2103 87.193C57.5255 87.193 57.7982 87.1226 58.0281 86.9816C58.2581 86.8407 58.4732 86.6422 58.6735 86.3863V83.7047ZM59.764 79.7767V87.9886H59.1075C58.9554 87.9886 58.8608 87.9163 58.8237 87.7717L58.7291 87.1207C58.4881 87.4063 58.2136 87.6363 57.9057 87.8106C57.6016 87.9812 57.2492 88.0665 56.8486 88.0665C56.5259 88.0665 56.2329 88.0035 55.9696 87.8774C55.7099 87.7513 55.4874 87.5677 55.3019 87.3266C55.1165 87.0818 54.9737 86.7795 54.8735 86.4197C54.7734 86.0599 54.7233 85.6464 54.7233 85.179C54.7233 84.7599 54.779 84.3704 54.8902 84.0107C55.0015 83.6509 55.1629 83.3393 55.3743 83.076C55.5857 82.8126 55.8416 82.6068 56.1421 82.4584C56.4425 82.3063 56.7819 82.2303 57.1602 82.2303C57.5014 82.2303 57.7907 82.2859 58.0281 82.3972C58.2692 82.5085 58.4843 82.6661 58.6735 82.8701V79.7767H59.764ZM64.6102 83.3096C64.5805 83.3579 64.549 83.3931 64.5156 83.4153C64.4822 83.4339 64.4395 83.4432 64.3876 83.4432C64.3283 83.4432 64.2615 83.4228 64.1873 83.382C64.1168 83.3412 64.0297 83.2967 63.9258 83.2484C63.8257 83.2002 63.707 83.1557 63.5698 83.1149C63.4325 83.0741 63.2693 83.0537 63.0802 83.0537C62.9244 83.0537 62.7816 83.0741 62.6518 83.1149C62.5257 83.152 62.4181 83.2058 62.3291 83.2763C62.2401 83.343 62.1714 83.4246 62.1232 83.5211C62.075 83.6138 62.0509 83.7139 62.0509 83.8215C62.0509 83.9624 62.0917 84.0793 62.1733 84.172C62.2586 84.2647 62.368 84.3445 62.5015 84.4112C62.6388 84.478 62.7927 84.5392 62.9633 84.5948C63.1377 84.6468 63.3138 84.7024 63.4919 84.7617C63.6736 84.8211 63.8498 84.8897 64.0204 84.9676C64.1947 85.0418 64.3487 85.1364 64.4822 85.2513C64.6194 85.3626 64.7288 85.498 64.8104 85.6575C64.8958 85.817 64.9384 86.0117 64.9384 86.2417C64.9384 86.505 64.8902 86.7498 64.7938 86.9761C64.701 87.1986 64.5619 87.3915 64.3765 87.5547C64.1947 87.7179 63.9685 87.8458 63.6977 87.9386C63.427 88.0313 63.1173 88.0777 62.7686 88.0777C62.3791 88.0777 62.0194 88.0128 61.6893 87.8829C61.3591 87.7531 61.0828 87.5881 60.8603 87.3878L61.1162 86.9705C61.1459 86.9186 61.183 86.8796 61.2275 86.8537C61.272 86.824 61.3313 86.8092 61.4055 86.8092C61.476 86.8092 61.5483 86.8351 61.6225 86.887C61.6967 86.939 61.7857 86.9965 61.8895 87.0595C61.9934 87.1189 62.1195 87.1745 62.2679 87.2264C62.4162 87.2746 62.6017 87.2988 62.8242 87.2988C63.0097 87.2988 63.171 87.2765 63.3083 87.232C63.4455 87.1838 63.5586 87.1207 63.6477 87.0428C63.7404 86.9612 63.809 86.8685 63.8535 86.7646C63.898 86.6608 63.9203 86.5514 63.9203 86.4364C63.9203 86.288 63.8776 86.1656 63.7923 86.0692C63.7107 85.9691 63.6013 85.8837 63.4641 85.8133C63.3305 85.7428 63.1766 85.6816 63.0023 85.6297C62.8279 85.5777 62.6499 85.5221 62.4682 85.4628C62.2864 85.4034 62.1084 85.3348 61.9341 85.2569C61.7597 85.179 61.6039 85.0807 61.4667 84.962C61.3332 84.8433 61.2238 84.6987 61.1385 84.5281C61.0569 84.3575 61.0161 84.1497 61.0161 83.9049C61.0161 83.6861 61.0606 83.4765 61.1496 83.2763C61.2423 83.076 61.374 82.8998 61.5446 82.7477C61.7189 82.5956 61.9322 82.4751 62.1844 82.3861C62.4403 82.2933 62.7315 82.247 63.0579 82.247C63.4325 82.247 63.7701 82.3063 64.0705 82.425C64.3746 82.5437 64.6343 82.7069 64.8494 82.9146L64.6102 83.3096ZM69.8574 84.5336C69.8574 84.3185 69.8259 84.1201 69.7629 83.9383C69.7035 83.7566 69.6145 83.5989 69.4958 83.4654C69.3771 83.3319 69.2325 83.228 69.0618 83.1539C68.8912 83.0797 68.6946 83.0426 68.4721 83.0426C68.0159 83.0426 67.6561 83.1743 67.3928 83.4376C67.1331 83.7009 66.9681 84.0663 66.8976 84.5336H69.8574ZM70.7532 87.1819C70.6197 87.3377 70.4657 87.4731 70.2914 87.5881C70.1171 87.6993 69.9316 87.7902 69.735 87.8607C69.5385 87.9312 69.3345 87.9831 69.123 88.0165C68.9153 88.0498 68.7095 88.0665 68.5055 88.0665C68.116 88.0665 67.7544 88.0016 67.4206 87.8718C67.0905 87.7383 66.803 87.5454 66.5582 87.2932C66.3171 87.0373 66.128 86.722 65.9907 86.3474C65.8572 85.9691 65.7904 85.5351 65.7904 85.0455C65.7904 84.6523 65.8516 84.287 65.974 83.9495C66.0964 83.6082 66.2708 83.3115 66.497 83.0593C66.727 82.8071 67.007 82.6086 67.3371 82.464C67.6672 82.3193 68.0381 82.247 68.4498 82.247C68.7948 82.247 69.1119 82.3045 69.4012 82.4195C69.6942 82.5307 69.9465 82.6939 70.1579 82.9091C70.3693 83.1242 70.5344 83.3894 70.653 83.7047C70.7754 84.0199 70.8366 84.3797 70.8366 84.784C70.8366 84.9509 70.8181 85.064 70.781 85.1234C70.7439 85.179 70.6753 85.2068 70.5752 85.2068H66.8698C66.8809 85.5444 66.9291 85.8392 67.0144 86.0914C67.0997 86.34 67.2166 86.5477 67.3649 86.7146C67.517 86.8815 67.6969 87.0057 67.9046 87.0873C68.1123 87.1689 68.3441 87.2097 68.6001 87.2097C68.8412 87.2097 69.0489 87.1819 69.2232 87.1263C69.4012 87.0706 69.5533 87.0113 69.6794 86.9482C69.8092 86.8815 69.9168 86.8203 70.0021 86.7646C70.0911 86.709 70.169 86.6812 70.2358 86.6812C70.3248 86.6812 70.3934 86.7146 70.4416 86.7813L70.7532 87.1819ZM73.0209 83.1205C73.1433 82.9907 73.2712 82.872 73.4048 82.7644C73.5383 82.6568 73.6792 82.566 73.8276 82.4918C73.9797 82.4139 74.141 82.3545 74.3116 82.3137C74.486 82.2692 74.6714 82.247 74.868 82.247C75.1796 82.247 75.4522 82.2989 75.6859 82.4028C75.9232 82.5066 76.1217 82.6531 76.2812 82.8423C76.4407 83.0277 76.5612 83.2521 76.6428 83.5155C76.7244 83.7788 76.7652 84.07 76.7652 84.389V87.9886H75.6747V84.389C75.6747 83.9847 75.582 83.6713 75.3966 83.4487C75.2111 83.2225 74.9274 83.1093 74.5453 83.1093C74.2671 83.1093 74.0056 83.1761 73.7608 83.3096C73.5198 83.4395 73.2954 83.6175 73.0876 83.8437V87.9886H72.0027V82.336H72.6537C72.8058 82.336 72.9003 82.4083 72.9374 82.553L73.0209 83.1205ZM81.5618 83.3096C81.5322 83.3579 81.5006 83.3931 81.4673 83.4153C81.4339 83.4339 81.3912 83.4432 81.3393 83.4432C81.28 83.4432 81.2132 83.4228 81.139 83.382C81.0685 83.3412 80.9814 83.2967 80.8775 83.2484C80.7774 83.2002 80.6587 83.1557 80.5214 83.1149C80.3842 83.0741 80.221 83.0537 80.0318 83.0537C79.8761 83.0537 79.7333 83.0741 79.6034 83.1149C79.4773 83.152 79.3698 83.2058 79.2808 83.2763C79.1917 83.343 79.1231 83.4246 79.0749 83.5211C79.0267 83.6138 79.0026 83.7139 79.0026 83.8215C79.0026 83.9624 79.0434 84.0793 79.125 84.172C79.2103 84.2647 79.3197 84.3445 79.4532 84.4112C79.5905 84.478 79.7444 84.5392 79.915 84.5948C80.0893 84.6468 80.2655 84.7024 80.4436 84.7617C80.6253 84.8211 80.8015 84.8897 80.9721 84.9676C81.1464 85.0418 81.3004 85.1364 81.4339 85.2513C81.5711 85.3626 81.6805 85.498 81.7621 85.6575C81.8474 85.817 81.8901 86.0117 81.8901 86.2417C81.8901 86.505 81.8419 86.7498 81.7454 86.9761C81.6527 87.1986 81.5136 87.3915 81.3282 87.5547C81.1464 87.7179 80.9202 87.8458 80.6494 87.9386C80.3786 88.0313 80.0689 88.0777 79.7203 88.0777C79.3308 88.0777 78.971 88.0128 78.6409 87.8829C78.3108 87.7531 78.0345 87.5881 77.812 87.3878L78.0679 86.9705C78.0976 86.9186 78.1346 86.8796 78.1792 86.8537C78.2237 86.824 78.283 86.8092 78.3572 86.8092C78.4277 86.8092 78.5 86.8351 78.5742 86.887C78.6484 86.939 78.7374 86.9965 78.8412 87.0595C78.9451 87.1189 79.0712 87.1745 79.2196 87.2264C79.3679 87.2746 79.5534 87.2988 79.7759 87.2988C79.9614 87.2988 80.1227 87.2765 80.26 87.232C80.3972 87.1838 80.5103 87.1207 80.5993 87.0428C80.6921 86.9612 80.7607 86.8685 80.8052 86.7646C80.8497 86.6608 80.872 86.5514 80.872 86.4364C80.872 86.288 80.8293 86.1656 80.744 86.0692C80.6624 85.9691 80.553 85.8837 80.4157 85.8133C80.2822 85.7428 80.1283 85.6816 79.954 85.6297C79.7796 85.5777 79.6016 85.5221 79.4198 85.4628C79.2381 85.4034 79.0601 85.3348 78.8857 85.2569C78.7114 85.179 78.5556 85.0807 78.4184 84.962C78.2849 84.8433 78.1754 84.6987 78.0901 84.5281C78.0085 84.3575 77.9677 84.1497 77.9677 83.9049C77.9677 83.6861 78.0122 83.4765 78.1013 83.2763C78.194 83.076 78.3257 82.8998 78.4963 82.7477C78.6706 82.5956 78.8839 82.4751 79.1361 82.3861C79.392 82.2933 79.6832 82.247 80.0096 82.247C80.3842 82.247 80.7217 82.3063 81.0222 82.425C81.3263 82.5437 81.586 82.7069 81.8011 82.9146L81.5618 83.3096Z" fill="#309C9D"/>
<path d="M13.7467 96.7897C13.7467 97.135 13.6952 97.4455 13.592 97.7212C13.4889 97.997 13.3436 98.2317 13.1562 98.4254C12.9689 98.6191 12.7436 98.7675 12.4805 98.8707C12.2194 98.9738 11.931 99.0254 11.6153 99.0254H9.98272V94.5572H11.6153C11.931 94.5572 12.2194 94.6088 12.4805 94.7119C12.7436 94.8151 12.9689 94.9635 13.1562 95.1572C13.3436 95.3508 13.4889 95.5856 13.592 95.8613C13.6952 96.1371 13.7467 96.4466 13.7467 96.7897ZM13.412 96.7897C13.412 96.4782 13.3689 96.2003 13.2826 95.9561C13.1962 95.7119 13.0741 95.5056 12.9163 95.3372C12.7584 95.1687 12.5689 95.0403 12.3479 94.9519C12.1268 94.8635 11.8826 94.8193 11.6153 94.8193H10.308V98.7633H11.6153C11.8826 98.7633 12.1268 98.7191 12.3479 98.6307C12.5689 98.5423 12.7584 98.4138 12.9163 98.2454C13.0741 98.077 13.1962 97.8707 13.2826 97.6265C13.3689 97.3823 13.412 97.1034 13.412 96.7897ZM17.1654 95.8834L15.3592 100.036C15.3465 100.065 15.3297 100.09 15.3086 100.108C15.2897 100.127 15.2613 100.137 15.2234 100.137H15.0087L15.5613 98.9086L14.2318 95.8834H14.4813C14.5129 95.8834 14.5381 95.8919 14.5571 95.9087C14.576 95.9234 14.5887 95.9403 14.595 95.9592L15.6528 98.4033C15.6655 98.4349 15.676 98.4675 15.6844 98.5012C15.6949 98.5328 15.7044 98.5654 15.7128 98.5991C15.7234 98.5654 15.7339 98.5328 15.7444 98.5012C15.757 98.4675 15.7697 98.4349 15.7823 98.4033L16.8275 95.9592C16.838 95.9361 16.8528 95.9182 16.8717 95.9055C16.8907 95.8908 16.9117 95.8834 16.9349 95.8834H17.1654ZM18.084 96.6413C18.1324 96.5129 18.1871 96.3992 18.2482 96.3003C18.3113 96.1992 18.3829 96.114 18.4629 96.0445C18.545 95.975 18.6355 95.9224 18.7345 95.8866C18.8355 95.8487 18.9471 95.8298 19.0692 95.8298C19.1345 95.8298 19.1987 95.8361 19.2618 95.8487C19.325 95.8592 19.3808 95.8792 19.4292 95.9087L19.4039 96.1171C19.3934 96.1508 19.3734 96.1676 19.3439 96.1676C19.3187 96.1676 19.2797 96.1603 19.2271 96.1455C19.1766 96.1308 19.1092 96.1234 19.025 96.1234C18.9029 96.1234 18.7945 96.1424 18.6997 96.1803C18.6071 96.2161 18.5229 96.2708 18.4471 96.3445C18.3734 96.4182 18.3082 96.5097 18.2513 96.6192C18.1966 96.7266 18.1461 96.8508 18.0998 96.9918V99.0254H17.7966V95.8834H17.9577C17.9935 95.8834 18.0187 95.8908 18.0335 95.9055C18.0482 95.9203 18.0577 95.9455 18.0619 95.9813L18.084 96.6413ZM22.0545 97.1371C22.0545 96.9687 22.0303 96.8181 21.9819 96.6855C21.9356 96.5508 21.8692 96.4371 21.7829 96.3445C21.6966 96.2518 21.5935 96.1813 21.4735 96.1329C21.3556 96.0824 21.2251 96.0571 21.0819 96.0571C20.9198 96.0571 20.7746 96.0824 20.6461 96.1329C20.5177 96.1834 20.4062 96.2561 20.3114 96.3508C20.2188 96.4455 20.1441 96.5592 20.0872 96.6918C20.0304 96.8244 19.9925 96.9729 19.9735 97.1371H22.0545ZM19.9578 97.3297V97.3897C19.9578 97.6255 19.9851 97.8328 20.0399 98.0118C20.0946 98.1907 20.1725 98.3412 20.2735 98.4633C20.3746 98.5833 20.4967 98.6738 20.6398 98.7349C20.783 98.7959 20.943 98.8265 21.1198 98.8265C21.2777 98.8265 21.4145 98.8096 21.5303 98.7759C21.6461 98.7401 21.7429 98.7012 21.8208 98.6591C21.9008 98.6149 21.964 98.5759 22.0103 98.5423C22.0566 98.5065 22.0903 98.4886 22.1113 98.4886C22.1387 98.4886 22.1598 98.4991 22.1745 98.5202L22.2566 98.6212C22.2061 98.6844 22.1387 98.7433 22.0545 98.798C21.9724 98.8528 21.8798 98.9001 21.7766 98.9401C21.6756 98.978 21.5661 99.0085 21.4482 99.0317C21.3324 99.0549 21.2156 99.0664 21.0977 99.0664C20.883 99.0664 20.6872 99.0296 20.5104 98.9559C20.3335 98.8801 20.182 98.7707 20.0556 98.6275C19.9293 98.4844 19.8314 98.3096 19.762 98.1033C19.6946 97.8949 19.6609 97.657 19.6609 97.3897C19.6609 97.1644 19.6925 96.9571 19.7557 96.7676C19.8209 96.576 19.9136 96.4118 20.0335 96.275C20.1556 96.1361 20.3041 96.0276 20.4788 95.9498C20.6556 95.8719 20.8556 95.8329 21.0788 95.8329C21.2556 95.8329 21.4198 95.8634 21.5714 95.9245C21.7229 95.9855 21.8545 96.075 21.9661 96.1929C22.0777 96.3087 22.165 96.4518 22.2282 96.6224C22.2934 96.7929 22.3261 96.9887 22.3261 97.2097C22.3261 97.256 22.3197 97.2876 22.3071 97.3044C22.2945 97.3213 22.2734 97.3297 22.244 97.3297H19.9578ZM23.447 98.3402C23.508 98.4307 23.5712 98.5075 23.6364 98.5707C23.7038 98.6317 23.7743 98.6823 23.848 98.7222C23.9217 98.7601 23.9996 98.7875 24.0817 98.8043C24.1659 98.8212 24.2543 98.8296 24.3469 98.8296C24.5322 98.8296 24.6943 98.7959 24.8332 98.7286C24.9721 98.6612 25.0879 98.5665 25.1806 98.4444C25.2753 98.3202 25.3458 98.1728 25.3921 98.0023C25.4405 97.8297 25.4648 97.6402 25.4648 97.4339C25.4648 96.9665 25.3784 96.6234 25.2058 96.4045C25.0332 96.1834 24.7858 96.0729 24.4637 96.0729C24.2553 96.0729 24.0669 96.1266 23.8985 96.234C23.7301 96.3413 23.5796 96.4908 23.447 96.6824V98.3402ZM23.4343 96.4487C23.5733 96.2592 23.7354 96.1087 23.9206 95.9971C24.108 95.8855 24.3174 95.8298 24.549 95.8298C24.9343 95.8298 25.2342 95.9634 25.449 96.2308C25.6658 96.4981 25.7742 96.8992 25.7742 97.4339C25.7742 97.6634 25.7437 97.8781 25.6826 98.0781C25.6237 98.276 25.5353 98.4486 25.4174 98.5959C25.3016 98.7412 25.1584 98.8559 24.9879 98.9401C24.8195 99.0243 24.6248 99.0664 24.4038 99.0664C24.1911 99.0664 24.0069 99.0275 23.8511 98.9496C23.6954 98.8717 23.5606 98.757 23.447 98.6054V100.137H23.1438V95.8834H23.3112C23.3638 95.8834 23.3943 95.9098 23.4027 95.9624L23.4343 96.4487ZM28.8325 97.1371C28.8325 96.9687 28.8083 96.8181 28.7599 96.6855C28.7136 96.5508 28.6473 96.4371 28.561 96.3445C28.4746 96.2518 28.3715 96.1813 28.2515 96.1329C28.1336 96.0824 28.0031 96.0571 27.8599 96.0571C27.6978 96.0571 27.5526 96.0824 27.4242 96.1329C27.2958 96.1834 27.1842 96.2561 27.0895 96.3508C26.9968 96.4455 26.9221 96.5592 26.8653 96.6918C26.8084 96.8244 26.7705 96.9729 26.7516 97.1371H28.8325ZM26.7358 97.3297V97.3897C26.7358 97.6255 26.7632 97.8328 26.8179 98.0118C26.8726 98.1907 26.9505 98.3412 27.0516 98.4633C27.1526 98.5833 27.2747 98.6738 27.4179 98.7349C27.561 98.7959 27.721 98.8265 27.8978 98.8265C28.0557 98.8265 28.1926 98.8096 28.3083 98.7759C28.4241 98.7401 28.521 98.7012 28.5989 98.6591C28.6788 98.6149 28.742 98.5759 28.7883 98.5423C28.8346 98.5065 28.8683 98.4886 28.8894 98.4886C28.9167 98.4886 28.9378 98.4991 28.9525 98.5202L29.0346 98.6212C28.9841 98.6844 28.9167 98.7433 28.8325 98.798C28.7504 98.8528 28.6578 98.9001 28.5546 98.9401C28.4536 98.978 28.3441 99.0085 28.2262 99.0317C28.1105 99.0549 27.9936 99.0664 27.8757 99.0664C27.661 99.0664 27.4652 99.0296 27.2884 98.9559C27.1116 98.8801 26.96 98.7707 26.8337 98.6275C26.7074 98.4844 26.6095 98.3096 26.54 98.1033C26.4726 97.8949 26.439 97.657 26.439 97.3897C26.439 97.1644 26.4705 96.9571 26.5337 96.7676C26.599 96.576 26.6916 96.4118 26.8116 96.275C26.9337 96.1361 27.0821 96.0276 27.2568 95.9498C27.4336 95.8719 27.6336 95.8329 27.8568 95.8329C28.0336 95.8329 28.1978 95.8634 28.3494 95.9245C28.501 95.9855 28.6325 96.075 28.7441 96.1929C28.8557 96.3087 28.943 96.4518 29.0062 96.6224C29.0715 96.7929 29.1041 96.9887 29.1041 97.2097C29.1041 97.256 29.0978 97.2876 29.0851 97.3044C29.0725 97.3213 29.0515 97.3297 29.022 97.3297H26.7358ZM30.2092 96.4329C30.3545 96.2518 30.5218 96.1066 30.7113 95.9971C30.9028 95.8877 31.1155 95.8329 31.3491 95.8329C31.5218 95.8329 31.6733 95.8603 31.8039 95.915C31.9365 95.9698 32.0459 96.0487 32.1323 96.1519C32.2186 96.255 32.2838 96.3792 32.328 96.5245C32.3722 96.6697 32.3944 96.8339 32.3944 97.0171V99.0254H32.0912V97.0171C32.0912 96.7223 32.0238 96.4918 31.8891 96.3255C31.7544 96.1571 31.5491 96.0729 31.2734 96.0729C31.0692 96.0729 30.8776 96.1255 30.6986 96.2308C30.5218 96.3339 30.3639 96.4782 30.225 96.6634V99.0254H29.9218V95.8834H30.0892C30.1418 95.8834 30.1724 95.9098 30.1808 95.9624L30.2092 96.4329ZM35.1214 96.2718C35.1046 96.3013 35.0804 96.3161 35.0488 96.3161C35.0256 96.3161 34.9961 96.3034 34.9604 96.2782C34.9246 96.2508 34.8762 96.2213 34.8151 96.1897C34.7562 96.1561 34.6825 96.1266 34.5941 96.1013C34.5056 96.074 34.3983 96.0603 34.272 96.0603C34.1583 96.0603 34.0541 96.0771 33.9594 96.1108C33.8667 96.1424 33.7867 96.1855 33.7194 96.2403C33.6541 96.295 33.6036 96.3592 33.5678 96.4329C33.532 96.5045 33.5141 96.5803 33.5141 96.6602C33.5141 96.7592 33.5394 96.8413 33.5899 96.9066C33.6404 96.9718 33.7057 97.0276 33.7857 97.0739C33.8678 97.1202 33.9615 97.1602 34.0667 97.1939C34.172 97.2276 34.2783 97.2613 34.3856 97.295C34.4951 97.3286 34.6025 97.3665 34.7077 97.4086C34.813 97.4486 34.9056 97.4992 34.9856 97.5602C35.0677 97.6213 35.134 97.696 35.1846 97.7844C35.2351 97.8728 35.2603 97.9802 35.2603 98.1065C35.2603 98.2433 35.2361 98.3707 35.1877 98.4886C35.1393 98.6065 35.0677 98.7086 34.973 98.7949C34.8804 98.8812 34.7656 98.9496 34.6288 99.0001C34.492 99.0507 34.3351 99.0759 34.1583 99.0759C33.9373 99.0759 33.7467 99.0412 33.5867 98.9717C33.4267 98.9001 33.2836 98.8075 33.1573 98.6938L33.2268 98.5865C33.2373 98.5696 33.2489 98.557 33.2615 98.5486C33.2762 98.5402 33.2952 98.5359 33.3183 98.5359C33.3457 98.5359 33.3783 98.5528 33.4162 98.5865C33.4562 98.6201 33.5089 98.657 33.5741 98.697C33.6394 98.7349 33.7194 98.7707 33.8141 98.8043C33.9109 98.838 34.0299 98.8549 34.1709 98.8549C34.3035 98.8549 34.4204 98.837 34.5214 98.8012C34.6225 98.7633 34.7067 98.7128 34.7741 98.6496C34.8414 98.5865 34.8919 98.5128 34.9256 98.4286C34.9614 98.3423 34.9793 98.2517 34.9793 98.157C34.9793 98.0518 34.954 97.9644 34.9035 97.8949C34.853 97.8255 34.7867 97.7665 34.7046 97.7181C34.6225 97.6697 34.5288 97.6286 34.4235 97.5949C34.3204 97.5613 34.2141 97.5276 34.1046 97.4939C33.9951 97.4602 33.8878 97.4234 33.7825 97.3834C33.6794 97.3434 33.5867 97.2928 33.5046 97.2318C33.4225 97.1707 33.3562 97.0971 33.3057 97.0108C33.2552 96.9223 33.2299 96.8129 33.2299 96.6824C33.2299 96.5708 33.2541 96.4634 33.3025 96.3603C33.351 96.2571 33.4194 96.1666 33.5078 96.0887C33.5983 96.0108 33.7078 95.9487 33.8362 95.9024C33.9646 95.8561 34.1088 95.8329 34.2688 95.8329C34.4604 95.8329 34.6298 95.8603 34.7772 95.915C34.9267 95.9698 35.0625 96.054 35.1846 96.1676L35.1214 96.2718ZM36.4117 95.8834V99.0254H36.1117V95.8834H36.4117ZM36.5411 94.8003C36.5411 94.8382 36.5327 94.874 36.5159 94.9077C36.5011 94.9393 36.4812 94.9677 36.4559 94.993C36.4306 95.0182 36.4012 95.0382 36.3675 95.053C36.3338 95.0677 36.298 95.0751 36.2601 95.0751C36.2222 95.0751 36.1864 95.0677 36.1527 95.053C36.1191 95.0382 36.0896 95.0182 36.0643 94.993C36.0391 94.9677 36.0191 94.9393 36.0043 94.9077C35.9896 94.874 35.9822 94.8382 35.9822 94.8003C35.9822 94.7624 35.9896 94.7267 36.0043 94.693C36.0191 94.6572 36.0391 94.6267 36.0643 94.6014C36.0896 94.5761 36.1191 94.5561 36.1527 94.5414C36.1864 94.5267 36.2222 94.5193 36.2601 94.5193C36.298 94.5193 36.3338 94.5267 36.3675 94.5414C36.4012 94.5561 36.4306 94.5761 36.4559 94.6014C36.4812 94.6267 36.5011 94.6572 36.5159 94.693C36.5327 94.7267 36.5411 94.7624 36.5411 94.8003ZM38.7273 95.8329C38.9525 95.8329 39.1536 95.8719 39.3304 95.9498C39.5094 96.0255 39.6599 96.134 39.782 96.275C39.9041 96.416 39.9967 96.5866 40.0599 96.7866C40.1251 96.9844 40.1577 97.2065 40.1577 97.4528C40.1577 97.6991 40.1251 97.9212 40.0599 98.1191C39.9967 98.317 39.9041 98.4865 39.782 98.6275C39.6599 98.7686 39.5094 98.877 39.3304 98.9528C39.1536 99.0285 38.9525 99.0664 38.7273 99.0664C38.502 99.0664 38.2999 99.0285 38.121 98.9528C37.9442 98.877 37.7937 98.7686 37.6694 98.6275C37.5473 98.4865 37.4537 98.317 37.3884 98.1191C37.3253 97.9212 37.2937 97.6991 37.2937 97.4528C37.2937 97.2065 37.3253 96.9844 37.3884 96.7866C37.4537 96.5866 37.5473 96.416 37.6694 96.275C37.7937 96.134 37.9442 96.0255 38.121 95.9498C38.2999 95.8719 38.502 95.8329 38.7273 95.8329ZM38.7273 98.8296C38.9146 98.8296 39.0778 98.798 39.2167 98.7349C39.3578 98.6696 39.4746 98.577 39.5672 98.457C39.662 98.337 39.7325 98.1928 39.7788 98.0244C39.8251 97.8539 39.8483 97.6634 39.8483 97.4528C39.8483 97.2444 39.8251 97.055 39.7788 96.8844C39.7325 96.7139 39.662 96.5687 39.5672 96.4487C39.4746 96.3266 39.3578 96.2329 39.2167 96.1676C39.0778 96.1024 38.9146 96.0698 38.7273 96.0698C38.5399 96.0698 38.3757 96.1024 38.2347 96.1676C38.0957 96.2329 37.9789 96.3266 37.8842 96.4487C37.7915 96.5687 37.721 96.7139 37.6726 96.8844C37.6263 97.055 37.6031 97.2444 37.6031 97.4528C37.6031 97.6634 37.6263 97.8539 37.6726 98.0244C37.721 98.1928 37.7915 98.337 37.8842 98.457C37.9789 98.577 38.0957 98.6696 38.2347 98.7349C38.3757 98.798 38.5399 98.8296 38.7273 98.8296ZM41.2921 96.4329C41.4374 96.2518 41.6047 96.1066 41.7942 95.9971C41.9858 95.8877 42.1984 95.8329 42.4321 95.8329C42.6047 95.8329 42.7562 95.8603 42.8868 95.915C43.0194 95.9698 43.1289 96.0487 43.2152 96.1519C43.3015 96.255 43.3667 96.3792 43.4109 96.5245C43.4552 96.6697 43.4773 96.8339 43.4773 97.0171V99.0254H43.1741V97.0171C43.1741 96.7223 43.1068 96.4918 42.972 96.3255C42.8373 96.1571 42.632 96.0729 42.3563 96.0729C42.1521 96.0729 41.9605 96.1255 41.7816 96.2308C41.6047 96.3339 41.4468 96.4782 41.3079 96.6634V99.0254H41.0048V95.8834H41.1721C41.2247 95.8834 41.2553 95.9098 41.2637 95.9624L41.2921 96.4329ZM47.4357 95.8329C47.661 95.8329 47.862 95.8719 48.0389 95.9498C48.2178 96.0255 48.3683 96.134 48.4904 96.275C48.6125 96.416 48.7051 96.5866 48.7683 96.7866C48.8336 96.9844 48.8662 97.2065 48.8662 97.4528C48.8662 97.6991 48.8336 97.9212 48.7683 98.1191C48.7051 98.317 48.6125 98.4865 48.4904 98.6275C48.3683 98.7686 48.2178 98.877 48.0389 98.9528C47.862 99.0285 47.661 99.0664 47.4357 99.0664C47.2105 99.0664 47.0084 99.0285 46.8294 98.9528C46.6526 98.877 46.5021 98.7686 46.3779 98.6275C46.2558 98.4865 46.1621 98.317 46.0969 98.1191C46.0337 97.9212 46.0021 97.6991 46.0021 97.4528C46.0021 97.2065 46.0337 96.9844 46.0969 96.7866C46.1621 96.5866 46.2558 96.416 46.3779 96.275C46.5021 96.134 46.6526 96.0255 46.8294 95.9498C47.0084 95.8719 47.2105 95.8329 47.4357 95.8329ZM47.4357 98.8296C47.6231 98.8296 47.7862 98.798 47.9252 98.7349C48.0662 98.6696 48.1831 98.577 48.2757 98.457C48.3704 98.337 48.4409 98.1928 48.4873 98.0244C48.5336 97.8539 48.5567 97.6634 48.5567 97.4528C48.5567 97.2444 48.5336 97.055 48.4873 96.8844C48.4409 96.7139 48.3704 96.5687 48.2757 96.4487C48.1831 96.3266 48.0662 96.2329 47.9252 96.1676C47.7862 96.1024 47.6231 96.0698 47.4357 96.0698C47.2484 96.0698 47.0842 96.1024 46.9431 96.1676C46.8042 96.2329 46.6873 96.3266 46.5926 96.4487C46.5 96.5687 46.4295 96.7139 46.381 96.8844C46.3347 97.055 46.3116 97.2444 46.3116 97.4528C46.3116 97.6634 46.3347 97.8539 46.381 98.0244C46.4295 98.1928 46.5 98.337 46.5926 98.457C46.6873 98.577 46.8042 98.6696 46.9431 98.7349C47.0842 98.798 47.2484 98.8296 47.4357 98.8296ZM50.7271 97.636C50.8619 97.636 50.9818 97.617 51.0871 97.5791C51.1924 97.5391 51.2808 97.4844 51.3524 97.4149C51.4239 97.3455 51.4787 97.2623 51.5166 97.1655C51.5545 97.0686 51.5734 96.9613 51.5734 96.8434C51.5734 96.7255 51.5534 96.6181 51.5134 96.5213C51.4755 96.4224 51.4197 96.3382 51.346 96.2687C51.2745 96.1992 51.186 96.1455 51.0808 96.1076C50.9776 96.0698 50.8597 96.0508 50.7271 96.0508C50.5945 96.0508 50.4756 96.0698 50.3703 96.1076C50.2671 96.1455 50.1787 96.1992 50.105 96.2687C50.0335 96.3382 49.9787 96.4224 49.9408 96.5213C49.903 96.6181 49.884 96.7255 49.884 96.8434C49.884 96.9613 49.903 97.0686 49.9408 97.1655C49.9787 97.2623 50.0335 97.3455 50.105 97.4149C50.1787 97.4844 50.2671 97.5391 50.3703 97.5791C50.4756 97.617 50.5945 97.636 50.7271 97.636ZM51.9018 99.237C51.9018 99.138 51.8755 99.0591 51.8229 99.0001C51.7723 98.9391 51.7039 98.8917 51.6176 98.858C51.5313 98.8243 51.4313 98.8012 51.3176 98.7886C51.206 98.7738 51.0882 98.7633 50.964 98.757C50.8419 98.7507 50.7187 98.7444 50.5945 98.738C50.4703 98.7317 50.3535 98.7191 50.244 98.7001C50.164 98.7317 50.0903 98.7686 50.0229 98.8107C49.9556 98.8507 49.8977 98.897 49.8493 98.9496C49.8009 99.0022 49.763 99.0591 49.7356 99.1201C49.7082 99.1833 49.6945 99.2506 49.6945 99.3222C49.6945 99.4148 49.7177 99.5001 49.764 99.578C49.8124 99.658 49.8819 99.7264 49.9724 99.7832C50.0651 99.8422 50.1777 99.8885 50.3103 99.9222C50.4429 99.9559 50.5956 99.9727 50.7682 99.9727C50.9282 99.9727 51.0766 99.9548 51.2134 99.919C51.3524 99.8832 51.4723 99.8327 51.5734 99.7675C51.6765 99.7022 51.7565 99.6243 51.8134 99.5338C51.8723 99.4433 51.9018 99.3443 51.9018 99.237ZM52.2302 96.0224V96.1266C52.2302 96.1729 52.2007 96.2013 52.1418 96.2118L51.6618 96.2466C51.7208 96.3266 51.766 96.416 51.7976 96.515C51.8292 96.6139 51.845 96.7213 51.845 96.8371C51.845 96.9887 51.8176 97.1265 51.7629 97.2507C51.7102 97.3728 51.6344 97.4781 51.5355 97.5665C51.4387 97.6528 51.3208 97.7202 51.1818 97.7686C51.045 97.817 50.8934 97.8412 50.7271 97.8412C50.5482 97.8412 50.385 97.8139 50.2377 97.7591C50.1493 97.8097 50.0787 97.8697 50.0261 97.9391C49.9756 98.0065 49.9503 98.0739 49.9503 98.1412C49.9503 98.2317 49.9819 98.3012 50.0451 98.3496C50.1103 98.3981 50.1945 98.4338 50.2977 98.457C50.4029 98.478 50.5219 98.4917 50.6545 98.498C50.7892 98.5044 50.9261 98.5117 51.065 98.5202C51.2039 98.5265 51.3397 98.5391 51.4723 98.558C51.6071 98.577 51.726 98.6107 51.8292 98.6591C51.9344 98.7054 52.0186 98.7717 52.0818 98.858C52.1471 98.9422 52.1797 99.0549 52.1797 99.1959C52.1797 99.3264 52.1471 99.4517 52.0818 99.5717C52.0165 99.6917 51.9218 99.798 51.7976 99.8906C51.6755 99.9832 51.5271 100.057 51.3524 100.112C51.1776 100.168 50.9818 100.197 50.765 100.197C50.544 100.197 50.3503 100.174 50.184 100.127C50.0177 100.083 49.8777 100.022 49.764 99.9443C49.6524 99.8685 49.5682 99.7801 49.5114 99.679C49.4546 99.578 49.4261 99.4706 49.4261 99.357C49.4261 99.1906 49.4809 99.0485 49.5903 98.9307C49.6998 98.8107 49.8493 98.717 50.0387 98.6496C49.9335 98.6138 49.8482 98.5623 49.783 98.4949C49.7198 98.4254 49.6882 98.3317 49.6882 98.2139C49.6882 98.1696 49.6966 98.1233 49.7135 98.0749C49.7303 98.0265 49.7556 97.9791 49.7893 97.9328C49.823 97.8844 49.864 97.8391 49.9124 97.797C49.9608 97.7549 50.0156 97.717 50.0766 97.6834C49.9272 97.597 49.8103 97.4823 49.7261 97.3392C49.644 97.196 49.603 97.0286 49.603 96.8371C49.603 96.6855 49.6293 96.5487 49.6819 96.4266C49.7366 96.3024 49.8135 96.1961 49.9124 96.1076C50.0114 96.0192 50.1293 95.9508 50.2661 95.9024C50.405 95.854 50.5587 95.8298 50.7271 95.8298C50.8661 95.8298 50.9934 95.8466 51.1092 95.8803C51.2271 95.914 51.3324 95.9613 51.425 96.0224H52.2302ZM54.9757 95.8834V99.0254H54.6757V95.8834H54.9757ZM55.1052 94.8003C55.1052 94.8382 55.0968 94.874 55.0799 94.9077C55.0652 94.9393 55.0452 94.9677 55.0199 94.993C54.9947 95.0182 54.9652 95.0382 54.9315 95.053C54.8978 95.0677 54.862 95.0751 54.8241 95.0751C54.7862 95.0751 54.7505 95.0677 54.7168 95.053C54.6831 95.0382 54.6536 95.0182 54.6284 94.993C54.6031 94.9677 54.5831 94.9393 54.5684 94.9077C54.5536 94.874 54.5463 94.8382 54.5463 94.8003C54.5463 94.7624 54.5536 94.7267 54.5684 94.693C54.5831 94.6572 54.6031 94.6267 54.6284 94.6014C54.6536 94.5761 54.6831 94.5561 54.7168 94.5414C54.7505 94.5267 54.7862 94.5193 54.8241 94.5193C54.862 94.5193 54.8978 94.5267 54.9315 94.5414C54.9652 94.5561 54.9947 94.5761 55.0199 94.6014C55.0452 94.6267 55.0652 94.6572 55.0799 94.693C55.0968 94.7267 55.1052 94.7624 55.1052 94.8003ZM56.3345 96.4329C56.4798 96.2518 56.6471 96.1066 56.8366 95.9971C57.0282 95.8877 57.2408 95.8329 57.4745 95.8329C57.6471 95.8329 57.7987 95.8603 57.9292 95.915C58.0618 95.9698 58.1713 96.0487 58.2576 96.1519C58.3439 96.255 58.4092 96.3792 58.4534 96.5245C58.4976 96.6697 58.5197 96.8339 58.5197 97.0171V99.0254H58.2165V97.0171C58.2165 96.7223 58.1492 96.4918 58.0144 96.3255C57.8797 96.1571 57.6745 96.0729 57.3987 96.0729C57.1945 96.0729 57.0029 96.1255 56.824 96.2308C56.6471 96.3339 56.4893 96.4782 56.3503 96.6634V99.0254H56.0472V95.8834H56.2145C56.2672 95.8834 56.2977 95.9098 56.3061 95.9624L56.3345 96.4329ZM60.3352 99.0759C60.1226 99.0759 59.9562 99.017 59.8363 98.8991C59.7184 98.7812 59.6594 98.5991 59.6594 98.3528V96.2055H59.2079C59.1847 96.2055 59.1658 96.1992 59.151 96.1866C59.1363 96.174 59.1289 96.1561 59.1289 96.1329V96.0161L59.6657 95.9782L59.7415 94.854C59.7457 94.8351 59.7541 94.8182 59.7668 94.8035C59.7794 94.7888 59.7973 94.7814 59.8205 94.7814H59.9626V95.9813H60.9541V96.2055H59.9626V98.337C59.9626 98.4233 59.9731 98.498 59.9941 98.5612C60.0173 98.6223 60.0478 98.6728 60.0857 98.7128C60.1257 98.7528 60.172 98.7822 60.2247 98.8012C60.2773 98.8201 60.3341 98.8296 60.3952 98.8296C60.471 98.8296 60.5362 98.8191 60.5909 98.798C60.6457 98.7749 60.6931 98.7507 60.733 98.7254C60.773 98.698 60.8057 98.6738 60.8309 98.6528C60.8562 98.6296 60.8762 98.618 60.8909 98.618C60.9078 98.618 60.9246 98.6286 60.9415 98.6496L61.0236 98.7822C60.9436 98.8707 60.8415 98.9422 60.7173 98.997C60.5952 99.0496 60.4678 99.0759 60.3352 99.0759ZM63.8328 97.1371C63.8328 96.9687 63.8086 96.8181 63.7602 96.6855C63.7139 96.5508 63.6476 96.4371 63.5612 96.3445C63.4749 96.2518 63.3718 96.1813 63.2518 96.1329C63.1339 96.0824 63.0034 96.0571 62.8602 96.0571C62.6981 96.0571 62.5529 96.0824 62.4245 96.1329C62.296 96.1834 62.1845 96.2561 62.0897 96.3508C61.9971 96.4455 61.9224 96.5592 61.8655 96.6918C61.8087 96.8244 61.7708 96.9729 61.7519 97.1371H63.8328ZM61.7361 97.3297V97.3897C61.7361 97.6255 61.7634 97.8328 61.8182 98.0118C61.8729 98.1907 61.9508 98.3412 62.0518 98.4633C62.1529 98.5833 62.275 98.6738 62.4181 98.7349C62.5613 98.7959 62.7213 98.8265 62.8981 98.8265C63.056 98.8265 63.1928 98.8096 63.3086 98.7759C63.4244 98.7401 63.5212 98.7012 63.5991 98.6591C63.6791 98.6149 63.7423 98.5759 63.7886 98.5423C63.8349 98.5065 63.8686 98.4886 63.8897 98.4886C63.917 98.4886 63.9381 98.4991 63.9528 98.5202L64.0349 98.6212C63.9844 98.6844 63.917 98.7433 63.8328 98.798C63.7507 98.8528 63.6581 98.9001 63.5549 98.9401C63.4539 98.978 63.3444 99.0085 63.2265 99.0317C63.1107 99.0549 62.9939 99.0664 62.876 99.0664C62.6613 99.0664 62.4655 99.0296 62.2887 98.9559C62.1118 98.8801 61.9603 98.7707 61.834 98.6275C61.7077 98.4844 61.6098 98.3096 61.5403 98.1033C61.4729 97.8949 61.4392 97.657 61.4392 97.3897C61.4392 97.1644 61.4708 96.9571 61.534 96.7676C61.5992 96.576 61.6919 96.4118 61.8119 96.275C61.934 96.1361 62.0824 96.0276 62.2571 95.9498C62.4339 95.8719 62.6339 95.8329 62.8571 95.8329C63.0339 95.8329 63.1981 95.8634 63.3497 95.9245C63.5012 95.9855 63.6328 96.075 63.7444 96.1929C63.856 96.3087 63.9433 96.4518 64.0065 96.6224C64.0717 96.7929 64.1044 96.9887 64.1044 97.2097C64.1044 97.256 64.0981 97.2876 64.0854 97.3044C64.0728 97.3213 64.0517 97.3297 64.0223 97.3297H61.7361ZM65.2095 96.6413C65.2579 96.5129 65.3126 96.3992 65.3737 96.3003C65.4368 96.1992 65.5084 96.114 65.5884 96.0445C65.6705 95.975 65.761 95.9224 65.86 95.8866C65.961 95.8487 66.0726 95.8298 66.1947 95.8298C66.26 95.8298 66.3242 95.8361 66.3873 95.8487C66.4505 95.8592 66.5063 95.8792 66.5547 95.9087L66.5294 96.1171C66.5189 96.1508 66.4989 96.1676 66.4694 96.1676C66.4442 96.1676 66.4052 96.1603 66.3526 96.1455C66.3021 96.1308 66.2347 96.1234 66.1505 96.1234C66.0284 96.1234 65.92 96.1424 65.8252 96.1803C65.7326 96.2161 65.6484 96.2708 65.5726 96.3445C65.4989 96.4182 65.4337 96.5097 65.3768 96.6192C65.3221 96.7266 65.2716 96.8508 65.2253 96.9918V99.0254H64.9221V95.8834H65.0832C65.119 95.8834 65.1442 95.8908 65.159 95.9055C65.1737 95.9203 65.1832 95.9455 65.1874 95.9813L65.2095 96.6413ZM67.4421 96.4329C67.5874 96.2518 67.7547 96.1066 67.9442 95.9971C68.1358 95.8877 68.3484 95.8329 68.582 95.8329C68.7547 95.8329 68.9062 95.8603 69.0368 95.915C69.1694 95.9698 69.2789 96.0487 69.3652 96.1519C69.4515 96.255 69.5167 96.3792 69.5609 96.5245C69.6052 96.6697 69.6273 96.8339 69.6273 97.0171V99.0254H69.3241V97.0171C69.3241 96.7223 69.2567 96.4918 69.122 96.3255C68.9873 96.1571 68.782 96.0729 68.5063 96.0729C68.3021 96.0729 68.1105 96.1255 67.9316 96.2308C67.7547 96.3339 67.5968 96.4782 67.4579 96.6634V99.0254H67.1547V95.8834H67.3221C67.3747 95.8834 67.4053 95.9098 67.4137 95.9624L67.4421 96.4329ZM72.3859 97.5065C72.0869 97.517 71.8291 97.5413 71.6122 97.5791C71.3975 97.6149 71.2196 97.6644 71.0786 97.7276C70.9396 97.7907 70.8365 97.8665 70.7691 97.9549C70.7018 98.0412 70.6681 98.1402 70.6681 98.2517C70.6681 98.357 70.6849 98.4486 70.7186 98.5265C70.7544 98.6023 70.8007 98.6654 70.8575 98.7159C70.9165 98.7644 70.9838 98.8001 71.0596 98.8233C71.1354 98.8465 71.2144 98.858 71.2965 98.858C71.4186 98.858 71.5301 98.8454 71.6312 98.8201C71.7343 98.7928 71.8291 98.7559 71.9154 98.7096C72.0038 98.6612 72.0859 98.6044 72.1617 98.5391C72.2375 98.4738 72.3122 98.4033 72.3859 98.3275V97.5065ZM70.5386 96.3287C70.7028 96.1645 70.8754 96.0403 71.0565 95.9561C71.2375 95.8719 71.4428 95.8298 71.6722 95.8298C71.8406 95.8298 71.988 95.8571 72.1143 95.9119C72.2406 95.9645 72.3448 96.0413 72.4269 96.1424C72.5111 96.2413 72.5743 96.3624 72.6164 96.5055C72.6585 96.6466 72.6796 96.8045 72.6796 96.9792V99.0254H72.5596C72.4964 99.0254 72.4575 98.9959 72.4427 98.937L72.3985 98.5328C72.3122 98.617 72.2259 98.6928 72.1396 98.7601C72.0554 98.8275 71.967 98.8843 71.8743 98.9307C71.7817 98.977 71.6817 99.0128 71.5743 99.038C71.467 99.0633 71.3491 99.0759 71.2207 99.0759C71.1133 99.0759 71.0091 99.0601 70.9081 99.0285C70.807 98.997 70.7165 98.9486 70.6365 98.8833C70.5586 98.818 70.4955 98.7349 70.447 98.6338C70.4007 98.5307 70.3776 98.4075 70.3776 98.2644C70.3776 98.1318 70.4155 98.0086 70.4912 97.8949C70.567 97.7812 70.686 97.6823 70.8481 97.5981C71.0102 97.5139 71.2175 97.4465 71.4701 97.396C71.7249 97.3455 72.0301 97.316 72.3859 97.3076V96.9792C72.3859 96.6887 72.3227 96.4655 72.1964 96.3097C72.0722 96.1519 71.887 96.0729 71.6407 96.0729C71.4891 96.0729 71.3596 96.094 71.2523 96.1361C71.147 96.1782 71.0575 96.2245 70.9838 96.275C70.9102 96.3255 70.8502 96.3718 70.8039 96.4139C70.7575 96.456 70.7186 96.4771 70.687 96.4771C70.6639 96.4771 70.6449 96.4718 70.6302 96.4613C70.6154 96.4508 70.6028 96.4371 70.5923 96.4203L70.5386 96.3287ZM74.508 99.0759C74.2954 99.0759 74.1291 99.017 74.0091 98.8991C73.8912 98.7812 73.8322 98.5991 73.8322 98.3528V96.2055H73.3807C73.3575 96.2055 73.3386 96.1992 73.3238 96.1866C73.3091 96.174 73.3017 96.1561 73.3017 96.1329V96.0161L73.8385 95.9782L73.9143 94.854C73.9185 94.8351 73.927 94.8182 73.9396 94.8035C73.9522 94.7888 73.9701 94.7814 73.9933 94.7814H74.1354V95.9813H75.1269V96.2055H74.1354V98.337C74.1354 98.4233 74.1459 98.498 74.1669 98.5612C74.1901 98.6223 74.2206 98.6728 74.2585 98.7128C74.2985 98.7528 74.3448 98.7822 74.3975 98.8012C74.4501 98.8201 74.5069 98.8296 74.568 98.8296C74.6438 98.8296 74.709 98.8191 74.7638 98.798C74.8185 98.7749 74.8659 98.7507 74.9059 98.7254C74.9459 98.698 74.9785 98.6738 75.0037 98.6528C75.029 98.6296 75.049 98.618 75.0637 98.618C75.0806 98.618 75.0974 98.6286 75.1143 98.6496L75.1964 98.7822C75.1164 98.8707 75.0143 98.9422 74.8901 98.997C74.768 99.0496 74.6406 99.0759 74.508 99.0759Z" fill="white"/>
</svg>
